<svg xmlns="http://www.w3.org/2000/svg" xmlns:svg="http://www.w3.org/2000/svg" id="svg4682" width="24" height="24" version="1.1"><metadata id="metadata4687"/><g id="layer1" transform="translate(0,-1028.3622)"><path id="path5306" fill="#212121" fill-opacity="1" stroke="none" d="m 17,1030.3622 v 3 H 7 6 l 2,2 h 9 v 3 l 4,-4 z m -13,3 -1,1 2,2 v 3 h 2 v -1 l 1,1 v 4 h 1 v -2 h 1 l 0.5,0.5 v 1.5 h 1 v -0.5 l 2.5,2.5 H 7 v -3 l -4,4 4,4 v -3 h 9 l 3,3 1,-1 -2,-2 -2,-2 -2,-2 -1.5,-1.5 -1,-1 -1,-1 -1.5,-1.5 -0.70703,-0.707 -1.29297,-1.293 -2,-2 z m 6,4 1.5,1.5 v -0.5 c 0,-0.5523 -0.44772,-1 -1,-1 z m 2.5,0 v 2.5 l 1,1 H 15 v 0.5 1 l 0.70703,0.707 0.29297,0.293 v -1 -1 c 0,-0.5523 -0.44772,-1 -1,-1 0.55228,0 1,-0.4477 1,-1 v -1 c 0,-0.5523 -0.44772,-1 -1,-1 z m 1,1 H 15 v 1 0.5 h -1.5 v -0.5 z m 3.5,3 v 3 l 2,2 v -5 z"/></g></svg>