<svg xmlns="http://www.w3.org/2000/svg" xmlns:svg="http://www.w3.org/2000/svg" id="svg4682" width="24" height="24" version="1.1"><metadata id="metadata4687"/><g id="layer1" transform="translate(0,-1028.3622)"><path id="path5283" fill="#fafafa" fill-opacity="1" stroke="none" d="m 17,1030.3622 v 3 H 7 5 v 6 h 2 v -4 h 10 v 3 l 4,-4 z m -8,7 c -0.55228,0 -1,0.4477 -1,1 v 5 h 1 v -2 h 1.5 v 2 h 1 v -5 c 0,-0.5523 -0.44772,-1 -1,-1 z m 3.5,0 v 6 H 15 c 0.55228,0 1,-0.4477 1,-1 v -1 c 0,-0.5523 -0.44772,-1 -1,-1 0.55228,0 1,-0.4477 1,-1 v -1 c 0,-0.5523 -0.44772,-1 -1,-1 z m -3.5,1 h 1.5 v 2 H 9 Z m 4.5,0 H 15 v 1.5 h -1.5 z m 0,2.5 H 15 v 1.5 h -1.5 z m 3.5,0.5 v 4 H 7 v -3 l -4,4 4,4 v -3 h 10 2 v -6 z"/></g></svg>