<svg xmlns="http://www.w3.org/2000/svg" xmlns:svg="http://www.w3.org/2000/svg" id="svg4682" width="24" height="24" version="1.1"><metadata id="metadata4687"/><g id="layer1" transform="translate(0,-1028.3622)"><path id="path5336" fill="#fafafa" fill-opacity="1" stroke="none" d="m 17,1029.3622 v 3 H 7 5 v 6 h 2 v -4 h 10 v 3 l 4,-4 z m 0,11 v 4 H 7 v -3 l -4,4 4,4 v -3 h 10 2 v -6 z"/><path id="path5338" fill="#fafafa" fill-opacity="1" fill-rule="evenodd" stroke="none" stroke-linecap="butt" stroke-linejoin="miter" stroke-opacity="1" stroke-width="1" d="m 9,1037.3631 c -0.55228,0 -1,0.4477 -1,1 v 4 h 1 v -1.5 h 1 v 1.5 h 1 v -4 c 0,-0.5523 -0.44772,-1 -1,-1 z m 0,1 h 1 v 1.5 H 9 Z"/><path id="path5340" fill="#f80" fill-opacity="1" fill-rule="nonzero" stroke="none" stroke-dasharray="none" stroke-dashoffset="47.298" stroke-linecap="butt" stroke-linejoin="round" stroke-miterlimit="4" stroke-opacity="1" stroke-width="4" d="m 12.5,1036.3631 v 6 H 15 c 0.55228,0 1,-0.4477 1,-1 v -1 c 0,-0.5523 -0.44772,-1 -1,-1 0.55228,0 1,-0.4477 1,-1 v -1 c 0,-0.5523 -0.44772,-1 -1,-1 z m 2.5,2.5 h -1.5 v -1.5 H 15 Z m -1.5,1 H 15 v 1.5 h -1.5 z" color="#000" display="inline" enable-background="accumulate" opacity="1" overflow="visible" vector-effect="none" visibility="visible" style="marker:none"/></g></svg>