<svg xmlns="http://www.w3.org/2000/svg" xmlns:svg="http://www.w3.org/2000/svg" id="svg4682" width="24" height="24" version="1.1"><metadata id="metadata4687"/><g id="layer1" transform="translate(0,-1028.3622)"><path id="path7861" fill="#212121" fill-opacity="1" fill-rule="nonzero" stroke="none" stroke-dasharray="none" stroke-dashoffset="0" stroke-linecap="round" stroke-linejoin="round" stroke-miterlimit="4" stroke-opacity="1" stroke-width="1.125" d="m 5.25,1038.1122 a 2.25,2.25 0 0 0 -2.25,2.25 2.25,2.25 0 0 0 2.25,2.25 2.25,2.25 0 0 0 2.25,-2.25 2.25,2.25 0 0 0 -2.25,-2.25 z m 6.75,0 a 2.25,2.25 0 0 0 -2.25,2.25 2.25,2.25 0 0 0 2.25,2.25 2.25,2.25 0 0 0 2.25,-2.25 2.25,2.25 0 0 0 -2.25,-2.25 z m 6.75,0 a 2.25,2.25 0 0 0 -2.25,2.25 2.25,2.25 0 0 0 2.25,2.25 2.25,2.25 0 0 0 2.25,-2.25 2.25,2.25 0 0 0 -2.25,-2.25 z" color="#000" display="inline" enable-background="accumulate" opacity="1" overflow="visible" paint-order="markers fill stroke" vector-effect="none" visibility="visible" style="marker:none"/></g></svg>