<svg xmlns="http://www.w3.org/2000/svg" xmlns:svg="http://www.w3.org/2000/svg" id="svg4682" width="24" height="24" version="1.1"><metadata id="metadata4687"/><g id="layer1" transform="translate(0,-1028.3622)"><path id="path5348" fill="#ffb54c" fill-opacity="1" stroke="none" d="m 17,1030.3622 v 3 H 7 5 v 6 h 2 v -4 h 10 v 3 l 4,-4 z m 0,11 v 4 H 7 v -3 l -4,4 4,4 v -3 h 10 2 v -6 z"/><path id="path5350" fill="#212121" fill-opacity="1" fill-rule="evenodd" stroke="none" stroke-linecap="butt" stroke-linejoin="miter" stroke-opacity="1" stroke-width="1" d="m 9,1037.3631 c -0.55228,0 -1,0.4477 -1,1 v 5 h 1 v -2 h 1.5 v 2 h 1 v -5 c 0,-0.5523 -0.44772,-1 -1,-1 z m 0,1 h 1.5 v 2 H 9 Z"/><path id="path5352" fill="#ffb54c" fill-opacity="1" fill-rule="nonzero" stroke="none" stroke-dasharray="none" stroke-dashoffset="47.298" stroke-linecap="butt" stroke-linejoin="round" stroke-miterlimit="4" stroke-opacity="1" stroke-width="4" d="m 13,1038.3631 v 5 h 2 c 0.13807,0 0.26903,-0.027 0.38867,-0.078 0.35892,-0.152 0.61133,-0.5078 0.61133,-0.922 v -0.5 c 0,-0.5523 -0.44772,-1 -1,-1 0.55228,0 1,-0.4477 1,-1 v -0.5 c 0,-0.1381 -0.0275,-0.2691 -0.0781,-0.3887 -0.15184,-0.3589 -0.50769,-0.6113 -0.9219,-0.6113 z m 1,1 h 1 v 1 h -1 z m 0,2 h 1 v 1 h -1 z" color="#000" display="inline" enable-background="accumulate" opacity="1" overflow="visible" vector-effect="none" visibility="visible" style="marker:none"/></g></svg>