<svg xmlns="http://www.w3.org/2000/svg" xmlns:svg="http://www.w3.org/2000/svg" id="svg4682" width="24" height="24" version="1.1"><metadata id="metadata4687"/><g id="layer1" transform="translate(0,-1028.3622)"><path id="path6529" fill="#757575" fill-opacity="1" fill-rule="nonzero" stroke="none" stroke-dasharray="none" stroke-dashoffset="0" stroke-linecap="round" stroke-linejoin="round" stroke-miterlimit="3.7" stroke-opacity="1" stroke-width="1" d="m 6.9999997,1042.3622 0,-8 13.0000003,0 c 0,-1.108 -0.892,-2 -2,-2 l -14.0000003,0 0,2 1,0 0,8 -1,0 0,2 8.0000003,0 0,2 -4.0000003,0 0,2 11.0000003,0 0,-2 -4,0 0,-2 3,0 c 1.108,0 1.95742,-0.8928 2,-2 z m 2,-7 0,2.5 9.0000003,0 0,-2.5 z m 0,3.5 0,2.5 9.0000003,0 0,-2.5 z" color="#000" display="inline" enable-background="accumulate" opacity="1" overflow="visible" visibility="visible" style="marker:none"/></g></svg>