<svg xmlns="http://www.w3.org/2000/svg" xmlns:svg="http://www.w3.org/2000/svg" id="svg4682" width="125" height="235" version="1.1"><metadata id="metadata4687"/><g id="layer1" transform="translate(0,-817.36218)"><g id="g6259" transform="matrix(0.527776,0,0,0.527776,1020.4134,1730.5584)"><path d="m -1814.9251,-1567.625 c 14.24,0 30,5 40,15 17.605,17.6049 19.9443,73.0896 20.0937,97.8125 -14.2293,16.1813 -34.8901,26.5717 -58.0312,27.1563 -0.687,0.017 -1.3712,0.031 -2.0625,0.031 -0.6913,0 -1.3755,-0.014 -2.0625,-0.031 -23.1411,-0.5846 -43.8019,-10.975 -58.0313,-27.1563 0.1495,-24.7229 2.4888,-80.2076 20.0938,-97.8125 10,-10 25.76,-15 40,-15 z" style="marker:none" id="path6261" fill="#f80" fill-opacity="1" fill-rule="nonzero" stroke="none" stroke-width="2" color="#000" display="inline" enable-background="accumulate" overflow="visible" visibility="visible"/><path d="m -1782.9251,-1543.6378 c -8.6367,-7.308 -20.608,-12 -32,-12 -11.392,0 -23.3633,4.692 -32,12 -13,11 -8,31 -8,31 0,0 4,15 40,15 36,0 40,-15 40,-15 0,0 5,-20 -8,-31 z" style="marker:none" id="path6263" fill="#fafafa" fill-opacity="1" fill-rule="nonzero" stroke="none" stroke-width="2" color="#000" display="inline" enable-background="accumulate" overflow="visible" visibility="visible"/><path id="path6265" fill="#f80" fill-opacity="1" stroke="none" stroke-width="10" d="m -1220,-1417.625 c -49.6464,0 -90,40.3536 -90,90 0,5.4402 0.5057,10.7605 1.4375,15.9375 l 9.8125,-1.75 c -0.8177,-4.6025 -1.25,-9.3418 -1.25,-14.1875 0,-44.242 35.758,-80 80,-80 44.242,0 80,35.758 80,80 0,4.7801 -0.4223,9.4562 -1.2188,14 l 5.2188,0 0,1.3438 4.5938,0.5624 c 0.9275,-5.1657 1.4062,-10.4786 1.4062,-15.9062 0,-49.6464 -40.3536,-90 -90,-90 z" baseline-shift="baseline" color="#000" direction="ltr" display="inline" enable-background="accumulate" font-family="Sans" font-size="medium" font-stretch="normal" font-style="normal" font-variant="normal" font-weight="normal" letter-spacing="normal" overflow="visible" text-anchor="start" text-decoration="none" transform="translate(-595,-180)" visibility="visible" word-spacing="normal" writing-mode="lr-tb" style="text-indent:0;text-align:start;line-height:normal;text-transform:none;block-progression:tb;marker:none;-inkscape-font-specification:Sans"/><path font-size="medium" style="text-indent:0;text-align:start;line-height:normal;text-transform:none;block-progression:tb;marker:none;-inkscape-font-specification:Sans" id="path6267" fill="#f80" fill-opacity="1" fill-rule="nonzero" stroke="none" stroke-width="5" d="m -1852.485,-1348.0587 c 0.1653,-1.1902 1.298,-2.1562 2.5,-2.1562 l 15,0 c 0,-17.4827 0,-35.0601 0,-52.5 0,-2.7614 2.2386,-5 5,-5 l 30,0 c 2.7614,0 5,2.2386 5,5 l 0,52.5 15,0 c 1.0169,0 1.9916,0.6709 2.3438,1.625 0.3514,0.9541 0.057,2.1231 -0.7188,2.7812 l -34.625,32.5938 c -0.8962,0.7665 -3.1038,0.7665 -4,0 l -34.625,-32.5938 c -0.6444,-0.5381 -0.9863,-1.4176 -0.875,-2.25 z" baseline-shift="baseline" color="#000" direction="ltr" display="inline" enable-background="accumulate" font-family="Sans" font-stretch="normal" font-style="normal" font-variant="normal" font-weight="normal" letter-spacing="normal" overflow="visible" text-anchor="start" text-decoration="none" visibility="visible" word-spacing="normal" writing-mode="lr-tb"/><path id="path6269" fill="#f80" fill-opacity="1" stroke="none" stroke-width="5" d="m -1726.3377,-1491.7625 c 0.4865,-2.7165 -1.3211,-5.3165 -4.0385,-5.8016 -2.7186,-0.4864 -5.316,1.3202 -5.8016,4.0385 -0.4862,2.7186 1.3201,5.3162 4.0386,5.8016 2.7164,0.4863 5.317,-1.3212 5.8015,-4.0385 z" color="#000" display="inline" enable-background="accumulate" overflow="visible" visibility="visible" style="marker:none"/><path id="path6271" fill="#f80" fill-opacity="1" stroke="none" stroke-width="5" d="m -1903.5124,-1491.7565 c 0.4867,2.7182 3.0861,4.5272 5.8029,4.0393 2.7181,-0.4867 4.5272,-3.0848 4.0393,-5.8029 -0.4867,-2.7182 -3.0848,-4.5273 -5.8029,-4.0392 -2.7182,0.4866 -4.5273,3.0861 -4.0393,5.8028 z" color="#000" display="inline" enable-background="accumulate" overflow="visible" visibility="visible" style="marker:none"/><path font-size="medium" style="text-indent:0;text-align:start;line-height:normal;text-transform:none;block-progression:tb;marker:none;-inkscape-font-specification:Sans" id="path6273" fill="#f80" fill-opacity="1" fill-rule="nonzero" stroke="none" stroke-width="5" d="m -1777.515,-1667.2213 c -0.1653,1.1902 -1.298,2.1562 -2.5,2.1562 l -15,0 c 0,17.4827 0,35.0601 0,52.5 0,2.7614 -2.2386,5 -5,5 l -30,0 c -2.7614,0 -5,-2.2386 -5,-5 l 0,-52.5 -15,0 c -1.0169,0 -1.9916,-0.6709 -2.3438,-1.625 -0.3514,-0.9541 -0.057,-2.1231 0.7188,-2.7812 l 34.625,-32.5938 c 0.8962,-0.7665 3.1038,-0.7665 4,0 l 34.625,32.5938 c 0.6444,0.5381 0.9863,1.4176 0.875,2.25 z" baseline-shift="baseline" color="#000" direction="ltr" display="inline" enable-background="accumulate" font-family="Sans" font-stretch="normal" font-style="normal" font-variant="normal" font-weight="normal" letter-spacing="normal" overflow="visible" text-anchor="start" text-decoration="none" visibility="visible" word-spacing="normal" writing-mode="lr-tb"/></g></g></svg>