<svg xmlns="http://www.w3.org/2000/svg" xmlns:svg="http://www.w3.org/2000/svg" id="svg4682" width="24" height="24" version="1.1"><metadata id="metadata4687"/><g id="layer1" transform="translate(0,-1028.3622)"><path id="path10530" fill="#212121" fill-opacity="1" fill-rule="nonzero" stroke="#000" stroke-dasharray="none" stroke-dashoffset="0" stroke-linecap="round" stroke-linejoin="round" stroke-miterlimit="4" stroke-opacity="1" stroke-width="0" d="m 12,1032.3622 a 4,4 0 0 0 -4,4 1,1 0 0 0 1,1 1,1 0 0 0 1,-1 1.9999826,1.9999826 0 0 1 2,-2 1.9999826,1.9999826 0 0 1 2,2 v 3 H 8 c -1.107999,0 -2,0.892 -2,2 v 5 c 0,1.108 0.892001,2 2,2 h 8 c 1.108,0 2,-0.892 2,-2 v -5 c 0,-1.108 -0.892,-2 -2,-2 v -3 a 4,4 0 0 0 -4,-4 z" color="#000" display="inline" enable-background="accumulate" opacity="1" overflow="visible" visibility="visible" style="marker:none"/></g></svg>