<svg xmlns="http://www.w3.org/2000/svg" xmlns:svg="http://www.w3.org/2000/svg" id="svg4682" width="24" height="24" version="1.1"><metadata id="metadata4687"/><g id="layer1" transform="translate(0,-1028.3622)"><path id="path11003" fill="#fafafa" fill-opacity="1" fill-rule="evenodd" stroke="none" stroke-dasharray="none" stroke-dashoffset="0" stroke-linecap="butt" stroke-linejoin="round" stroke-miterlimit="4" stroke-opacity="1" stroke-width="1" d="m 12,1031.3622 c -4.9587,0 -9,4.0413 -9,9 0,4.9587 4.0413,9 9,9 4.9587,0 9,-4.0413 9,-9 h -2 c 0,3.8779 -3.1222,7 -7,7 -3.8778,0 -7,-3.1221 -7,-7 0,-3.8778 3.1222,-7 7,-7 2.014207,0 3.818833,0.8464 5.09375,2.1992 l -1.947266,1.9473 c -0.314751,0.315 -0.09178,0.8533 0.353516,0.8535 h 5 c 0.276131,0 0.499972,-0.2239 0.5,-0.5 v -5 c -0.001,-0.2816 -0.234197,-0.5068 -0.515625,-0.498 -0.126888,0 -0.247684,0.055 -0.337891,0.1445 l -1.654297,1.6543 C 16.852304,1032.4451 14.554044,1031.3622 12,1031.3622 Z" baseline-shift="baseline" clip-rule="nonzero" color="#000" color-interpolation="sRGB" color-interpolation-filters="linearRGB" color-rendering="auto" direction="ltr" display="inline" dominant-baseline="auto" enable-background="accumulate" font-family="sans-serif" font-size="medium" font-stretch="normal" font-style="normal" font-variant="normal" font-weight="normal" image-rendering="auto" letter-spacing="normal" opacity="1" overflow="visible" shape-rendering="auto" text-anchor="start" text-decoration="none" text-rendering="auto" vector-effect="none" visibility="visible" word-spacing="normal" writing-mode="lr-tb" style="line-height:normal;font-variant-ligatures:normal;font-variant-position:normal;font-variant-caps:normal;font-variant-numeric:normal;font-variant-alternates:normal;font-feature-settings:normal;text-indent:0;text-align:start;text-decoration-line:none;text-decoration-style:solid;text-decoration-color:#000;text-transform:none;text-orientation:mixed;white-space:normal;shape-padding:0;isolation:auto;mix-blend-mode:normal;solid-color:#000;solid-opacity:1"/></g></svg>