<svg xmlns="http://www.w3.org/2000/svg" xmlns:svg="http://www.w3.org/2000/svg" id="svg4682" width="24" height="24" version="1.1"><metadata id="metadata4687"/><g id="layer1" transform="translate(0,-1028.3622)"><path id="ellipse11151" fill="#fafafa" fill-opacity="1" fill-rule="nonzero" stroke="none" stroke-dasharray="none" stroke-dashoffset="0" stroke-linecap="round" stroke-linejoin="round" stroke-miterlimit="4" stroke-opacity="1" stroke-width="2" d="m 9.9999,1031.3621 c -3.8542,0 -7,3.1459 -7,7 0,3.8542 3.1458,7 7,7 1.748,0 3.345,-0.652 4.5742,-1.7188 l 0.4258,0.4258 v 0.7071 l 4.2832,4.2832 a 1,1 0 0 0 0.01,0.01 1,1 0 0 0 0.707,0.293 1,1 0 0 0 1,-1 1,1 0 0 0 -0.293,-0.707 l -4.2929,-4.293 h -0.7071 l -0.4258,-0.4258 c 1.0666,-1.2295 1.7186,-2.8265 1.7186,-4.5745 0,-3.8541 -3.1458,-7 -7,-7 z m 0,2 c 2.7735,0 5,2.2265 5,5 0,2.7735 -2.2265,5.002 -5,5.002 -2.7735,0 -5,-2.2285 -5,-5.002 0,-2.7735 2.2265,-5 5,-5 z" baseline-shift="baseline" clip-rule="nonzero" color="#000" color-interpolation="sRGB" color-interpolation-filters="linearRGB" color-rendering="auto" direction="ltr" display="inline" dominant-baseline="auto" enable-background="accumulate" font-family="sans-serif" font-size="medium" font-stretch="normal" font-style="normal" font-variant="normal" font-weight="normal" image-rendering="auto" letter-spacing="normal" opacity="1" overflow="visible" paint-order="markers fill stroke" shape-rendering="auto" text-anchor="start" text-decoration="none" text-rendering="auto" vector-effect="none" visibility="visible" word-spacing="normal" writing-mode="lr-tb" style="line-height:normal;font-variant-ligatures:normal;font-variant-position:normal;font-variant-caps:normal;font-variant-numeric:normal;font-variant-alternates:normal;font-feature-settings:normal;text-indent:0;text-align:start;text-decoration-line:none;text-decoration-style:solid;text-decoration-color:#000;text-transform:none;text-orientation:mixed;white-space:normal;shape-padding:0;isolation:auto;mix-blend-mode:normal;solid-color:#000;solid-opacity:1;marker:none"/></g></svg>