<svg xmlns="http://www.w3.org/2000/svg" xmlns:svg="http://www.w3.org/2000/svg" id="svg4682" width="24" height="24" version="1.1"><metadata id="metadata4687"/><g id="layer1" transform="translate(0,-1028.3622)"><path stroke-width="1" style="marker:none" id="path7861" fill="#212121" fill-opacity="1" fill-rule="nonzero" stroke="none" stroke-dasharray="none" stroke-dashoffset="0" stroke-linecap="round" stroke-linejoin="round" stroke-miterlimit="4" stroke-opacity="1" d="M 6 10 A 2 2 0 0 0 4 12 A 2 2 0 0 0 6 14 A 2 2 0 0 0 8 12 A 2 2 0 0 0 6 10 z M 12 10 A 2 2 0 0 0 10 12 A 2 2 0 0 0 12 14 A 2 2 0 0 0 14 12 A 2 2 0 0 0 12 10 z M 18 10 A 2 2 0 0 0 16 12 A 2 2 0 0 0 18 14 A 2 2 0 0 0 20 12 A 2 2 0 0 0 18 10 z" color="#000" display="inline" enable-background="accumulate" opacity="1" overflow="visible" paint-order="markers fill stroke" transform="translate(0,1028.3622)" vector-effect="none" visibility="visible"/></g></svg>