<svg xmlns="http://www.w3.org/2000/svg" xmlns:svg="http://www.w3.org/2000/svg" id="svg4682" width="24" height="24" version="1.1"><metadata id="metadata4687"/><g id="layer1" transform="translate(0,-1028.3622)"><path id="path7957" fill="#212121" fill-opacity="1" fill-rule="evenodd" stroke="none" stroke-dasharray="none" stroke-dashoffset="0" stroke-linecap="butt" stroke-linejoin="round" stroke-miterlimit="4" stroke-opacity="1" stroke-width="2" d="m 6.9999988,1046.362 c 0.554,0 1,-0.446 1,-0.9999 v -9.999 c 0,-0.554 -0.446,-0.9999 -1,-0.9999 -0.5539999,0 -0.9999999,0.4459 -0.9999999,0.9999 v 9.999 c 0,0.5539 0.446,0.9999 0.9999999,0.9999 z m 10.9804992,0 c 0.5591,0.011 1.0184,-0.4388 1.0195,-0.9979 v -9.999 c 9e-4,-0.8142 -0.9198,-1.2882 -1.582,-0.8144 l -6.999999,4.9995 c -0.5579003,0.3988 -0.5579003,1.228 0,1.6268 l 6.999999,4.9995 c 0.1644,0.1172 0.3605,0.1819 0.5625,0.1855 z" baseline-shift="baseline" clip-rule="nonzero" color="#000" color-interpolation="sRGB" color-interpolation-filters="linearRGB" color-rendering="auto" direction="ltr" display="inline" dominant-baseline="auto" enable-background="accumulate" font-family="sans-serif" font-size="medium" font-stretch="normal" font-style="normal" font-variant="normal" font-weight="normal" image-rendering="auto" letter-spacing="normal" opacity="1" overflow="visible" shape-rendering="auto" text-anchor="start" text-decoration="none" text-rendering="auto" vector-effect="none" visibility="visible" word-spacing="normal" writing-mode="lr-tb" style="line-height:normal;font-variant-ligatures:normal;font-variant-position:normal;font-variant-caps:normal;font-variant-numeric:normal;font-variant-alternates:normal;font-feature-settings:normal;text-indent:0;text-align:start;text-decoration-line:none;text-decoration-style:solid;text-decoration-color:#000;text-transform:none;text-orientation:mixed;white-space:normal;shape-padding:0;isolation:auto;mix-blend-mode:normal;solid-color:#000;solid-opacity:1"/></g></svg>