<svg xmlns="http://www.w3.org/2000/svg" xmlns:svg="http://www.w3.org/2000/svg" id="svg4682" width="24" height="24" version="1.1"><metadata id="metadata4687"/><g id="layer1" transform="translate(0,-1028.3622)"><g id="g8420" fill="#212121" fill-opacity="1" transform="translate(-540,553.00002)"><rect id="rect8370" width="7" height="5" x="547" y="486.362" fill="#212121" fill-opacity="1" fill-rule="nonzero" stroke="none" stroke-dasharray="none" stroke-dashoffset="0" stroke-linecap="round" stroke-linejoin="round" stroke-miterlimit="4" stroke-opacity="1" stroke-width="0" color="#000" display="inline" enable-background="accumulate" opacity="1" overflow="visible" visibility="visible" style="marker:none"/><path id="path7904-2" fill="#212121" fill-opacity="1" fill-rule="nonzero" stroke="none" stroke-dasharray="none" stroke-dashoffset="0" stroke-linecap="round" stroke-linejoin="round" stroke-miterlimit="4" stroke-opacity="1" stroke-width="0" d="m 545.5,480.36218 c -0.831,0 -1.5,0.669 -1.5,1.5 l 1.5,0 0,-1.5 z m 1.44336,0 0,1.5 1.4453,0 0,-1.5 -1.4453,0 z m 2.88867,0 0,1.5 1.44531,0 0,-1.5 -1.44531,0 z m 2.89063,0 0,1.5 1.44531,0 0,-1.5 -1.44531,0 z m 2.88867,0 0,1.5 1.44531,0 0,-1.5 -1.44531,0 z m 2.88867,0 0,1.5 1.5,0 c 0,-0.831 -0.669,-1.5 -1.5,-1.5 z m -14.5,3.07031 0,1.57227 1.5,0 0,-1.57227 -1.5,0 z m 14.5,0 0,1.57227 1.5,0 0,-1.57227 -1.5,0 z m -14.5,3.14258 0,1.57422 1.5,0 0,-1.57422 -1.5,0 z m 14.5,0 0,1.57422 1.5,0 0,-1.57422 -1.5,0 z m -14.5,3.14453 0,1.57227 1.5,0 0,-1.57227 -1.5,0 z m 14.5,0 0,1.57227 1.5,0 0,-1.57227 -1.5,0 z m -14.5,3.14258 c 0,0.831 0.669,1.5 1.5,1.5 l 0,-1.5 -1.5,0 z m 2.94336,0 0,1.5 1.44531,0 0,-1.5 -1.44531,0 z m 2.88867,0 0,1.5 1.44531,0 0,-1.5 -1.44531,0 z m 2.89063,0 0,1.5 1.44531,0 0,-1.5 -1.44531,0 z m 2.88867,0 0,1.5 1.44531,0 0,-1.5 -1.44531,0 z m 2.88867,0 0,1.5 c 0.831,0 1.5,-0.669 1.5,-1.5 l -1.5,0 z" color="#000" display="inline" enable-background="accumulate" opacity="1" overflow="visible" visibility="visible" style="marker:none"/></g></g></svg>