<svg xmlns="http://www.w3.org/2000/svg" xmlns:svg="http://www.w3.org/2000/svg" id="svg4682" width="24" height="24" version="1.1"><metadata id="metadata4687"/><g id="layer1" transform="translate(0,-1028.3622)"><path id="rect8420-7" fill="#212121" fill-opacity="1" fill-rule="evenodd" stroke="none" stroke-dasharray="none" stroke-dashoffset="4.2" stroke-linecap="butt" stroke-linejoin="round" stroke-miterlimit="4" stroke-opacity="1" stroke-width="2" d="M 5.5 5 C 4.669 5 4 5.669 4 6.5 L 4 10 L 5.5 10 L 5.5 6.5 L 18.5 6.5 L 18.5 17.5 L 13 17.5 L 13 19 L 18.5 19 C 19.331 19 20 18.331 20 17.5 L 20 6.5 C 20 5.669 19.331 5 18.5 5 L 5.5 5 z M 4 11.5 L 4 13 C 7.3137 13 10 15.6863 10 19 L 11.5 19 C 11.5 14.8578 8.1421 11.5 4 11.5 z M 4 14.5 L 4 16 C 5.6569 16 7 17.3431 7 19 L 8.5 19 C 8.5 16.5147 6.4853 14.5 4 14.5 z M 4 17.5 L 4 19 L 5.5 19 C 5.5 18.1716 4.8284 17.5 4 17.5 z" color="#000" display="inline" enable-background="accumulate" opacity="1" overflow="visible" transform="translate(0,1028.3622)" vector-effect="none" visibility="visible" style="marker:none"/></g></svg>