<svg xmlns="http://www.w3.org/2000/svg" xmlns:svg="http://www.w3.org/2000/svg" id="svg4682" width="40" height="40" version="1.1"><metadata id="metadata4687"/><g id="layer1" transform="translate(0,-1012.3622)"><path id="path7957" fill="#212121" fill-opacity="1" fill-rule="evenodd" stroke="none" stroke-dasharray="none" stroke-dashoffset="0" stroke-linecap="butt" stroke-linejoin="round" stroke-miterlimit="4" stroke-opacity="1" stroke-width="3.077" d="m 11.538461,1041.5927 c 0.852308,0 1.538462,-0.6862 1.538462,-1.5383 v -15.3831 c 0,-0.8523 -0.686154,-1.5383 -1.538462,-1.5383 -0.852307,0 -1.5384611,0.686 -1.5384611,1.5383 v 15.3831 c 0,0.8521 0.6861541,1.5383 1.5384611,1.5383 z m 16.893076,0 c 0.860154,0.017 1.56677,-0.6751 1.568462,-1.5352 v -15.3831 c 0.0014,-1.2526 -1.415077,-1.9819 -2.433846,-1.2529 l -10.76923,7.6915 c -0.858308,0.6135 -0.858308,1.8892 0,2.5028 l 10.76923,7.6915 c 0.252923,0.1803 0.554615,0.2799 0.865384,0.2854 z" baseline-shift="baseline" clip-rule="nonzero" color="#000" color-interpolation="sRGB" color-interpolation-filters="linearRGB" color-rendering="auto" direction="ltr" display="inline" dominant-baseline="auto" enable-background="accumulate" font-family="sans-serif" font-size="medium" font-stretch="normal" font-style="normal" font-variant="normal" font-weight="normal" image-rendering="auto" letter-spacing="normal" opacity="1" overflow="visible" shape-rendering="auto" text-anchor="start" text-decoration="none" text-rendering="auto" vector-effect="none" visibility="visible" word-spacing="normal" writing-mode="lr-tb" style="line-height:normal;font-variant-ligatures:normal;font-variant-position:normal;font-variant-caps:normal;font-variant-numeric:normal;font-variant-alternates:normal;font-feature-settings:normal;text-indent:0;text-align:start;text-decoration-line:none;text-decoration-style:solid;text-decoration-color:#000;text-transform:none;text-orientation:mixed;white-space:normal;shape-padding:0;isolation:auto;mix-blend-mode:normal;solid-color:#000;solid-opacity:1"/></g></svg>